<mxfile host="app.diagrams.net" modified="2024-05-13T17:24:55.195Z" agent="Mozilla/5.0 (Windows NT 10.0; Win64; x64) AppleWebKit/537.36 (KHTML, like Gecko) Chrome/124.0.0.0 Safari/537.36" version="24.4.0" etag="zFDMw4fIAsxWrOXbvHUK" type="github">
  <diagram name="Page-1" id="mRDnV_Xhbvzxc1Wt9hcU">
    <mxGraphModel>
      <root>
        <mxCell id="0" />
        <mxCell id="1" parent="0" />
      </root>
    </mxGraphModel>
  </diagram>
</mxfile>
